<svg viewBox="0 0 64 64" xmlns="http://www.w3.org/2000/svg"><g fill="#f19920"><path d="m12 24.2v11l-5.86-3.52a2.33 2.33 0 0 1 0-4z"/><path d="m34 32c0 3.31-3.13 6-7 6a7.55 7.55 0 0 1 -5-1.81 5.39 5.39 0 0 1 0-8.38 7.55 7.55 0 0 1 5-1.81c3.87 0 7 2.69 7 6z"/><path d="m59 29.67a2.33 2.33 0 0 1 -1.09 2l-5.91 3.48v-10.95l5.86 3.47a2.32 2.32 0 0 1 1.14 2z"/></g><path d="m59 29.67v25.33a4 4 0 0 1 -4 4h-46a4 4 0 0 1 -4-4v-25.33a2.33 2.33 0 0 0 1.09 2l5.91 3.48 4 2.37 14 8.27a4 4 0 0 0 4.08 0l4-2.35 4-2.37 10-5.92 5.86-3.47a2.33 2.33 0 0 0 1.06-2.01z" fill="#f6b545"/><path d="m6.09 56.35a1 1 0 0 1 -.71-.29 1 1 0 0 1 0-1.42 1.69 1.69 0 0 1 .31-.21l19.9-11.79a1 1 0 1 1 1 1.72l-4.1 2.43-15.84 9.39a1 1 0 0 1 -.56.17z" fill="#ffe27a"/><path d="m57.91 56.35a1 1 0 0 1 -.58-.18l-19.94-11.81a1 1 0 0 1 1-1.72l20 11.82a1.44 1.44 0 0 1 .25.18 1 1 0 0 1 0 1.42 1 1 0 0 1 -.73.29z" fill="#ffe27a"/><path d="m42 9v32.07l-4 2.37v-30.44a4 4 0 0 1 -4-4h-14a.57.57 0 0 1 0 .13 4 4 0 0 1 -3 3.74 4.17 4.17 0 0 1 -1 .13v24.52l-4-2.37v-26.15a4 4 0 0 1 4-4h22a4 4 0 0 1 3.85 2.94 3.72 3.72 0 0 1 .15 1.06z" fill="#0e9347"/><path d="m34 32c0 3.31-3.13 6-7 6a7.55 7.55 0 0 1 -5-1.81 5.39 5.39 0 0 1 0-8.38 7.55 7.55 0 0 1 5-1.81c3.87 0 7 2.69 7 6z" fill="#89c763"/><path d="m47 13v25.11l-5 3v-32.11h1a4 4 0 0 1 3.85 2.94 3.72 3.72 0 0 1 .15 1.06z" fill="#3bb54a"/><path d="m52 17v18.15l-5 3v-25.15h1a4 4 0 0 1 3.85 2.94 3.72 3.72 0 0 1 .15 1.06z" fill="#0e9347"/><path d="m34 9h-13a4.17 4.17 0 0 0 -1 .13 4 4 0 0 1 -3 3.74 4.17 4.17 0 0 1 -1 .13v24.52l14 8.27a4 4 0 0 0 4.08 0l4-2.35v-30.44a4 4 0 0 1 -4.08-4zm-7 29a7.55 7.55 0 0 1 -5-1.81 5.39 5.39 0 0 1 0-8.38 7.55 7.55 0 0 1 5-1.81c3.87 0 7 2.69 7 6s-3.13 6-7 6z" fill="#3bb54a"/></svg>